<?xml version="1.0" standalone="no"?>
<!DOCTYPE svg PUBLIC "-//W3C//DTD SVG 20010904//EN"
 "http://www.w3.org/TR/2001/REC-SVG-20010904/DTD/svg10.dtd">
<svg version="1.0" xmlns="http://www.w3.org/2000/svg"
 width="1394.000000pt" height="1080.000000pt" viewBox="0 0 1394.000000 1080.000000"
 preserveAspectRatio="xMidYMid meet">

<g transform="translate(0.000000,1080.000000) scale(0.100000,-0.100000)"
fill="#000000" stroke="none">
<path  fill="#c30f00" d="M4517 10438 c-197 -1924 -257 -2502 -261 -2506 -3 -2 -62 33 -133 78
-70 45 -136 87 -145 94 -10 6 -18 20 -18 31 0 13 -18 31 -49 52 l-49 32 -241
-211 -241 -212 0 -144 c0 -158 -12 -222 -89 -465 -22 -67 -51 -183 -66 -257
-34 -173 -75 -299 -140 -430 -29 -58 -63 -141 -75 -185 -12 -44 -50 -134 -84
-200 -69 -133 -95 -202 -160 -416 l-43 -147 -180 -176 -180 -176 -80 -248
c-45 -136 -113 -350 -153 -477 l-72 -230 -143 -260 c-79 -143 -200 -363 -269
-490 l-126 -230 0 -105 0 -105 -127 -235 c-133 -248 -320 -581 -359 -640 -52
-78 -209 -500 -324 -867 -54 -172 -73 -251 -80 -321 -5 -55 -15 -101 -23 -110
-8 -10 -148 -178 -311 -376 l-296 -358 0 -74 0 -74 654 0 c734 0 666 -8 666
80 l0 48 108 7 c59 3 112 8 118 10 10 3 30 182 21 191 -2 2 -19 -1 -37 -8 -26
-9 -35 -9 -38 1 -3 9 -9 7 -23 -5 -16 -15 -27 -15 -81 -6 -60 9 -64 9 -83 -14
-19 -21 -28 -23 -134 -25 l-114 -3 -24 55 c-13 30 -27 63 -31 73 -7 17 -11 15
-31 -17 -29 -47 -95 -86 -159 -94 -40 -4 -60 -1 -104 20 -117 53 -158 173
-100 288 42 83 127 128 217 114 44 -6 135 -57 135 -75 0 -5 4 -10 9 -10 5 0
15 24 22 54 6 30 15 60 20 67 7 12 241 48 317 49 28 0 34 -5 48 -40 14 -35 20
-40 49 -40 19 0 37 -5 40 -10 5 -7 11 -8 19 -1 6 5 34 11 61 13 l49 3 82 185
c46 102 130 292 186 422 56 130 105 235 107 232 3 -2 21 -82 41 -176 l36 -171
74 302 74 302 135 167 135 167 32 265 c18 146 51 415 74 599 l41 334 320 624
320 625 94 456 95 456 121 200 122 201 18 155 c10 85 20 174 23 198 l6 42 -73
36 -72 36 3 326 4 327 77 275 c43 151 95 339 116 418 21 78 42 142 46 142 3 0
22 -34 40 -75 l33 -75 57 0 58 0 102 -132 c56 -72 108 -146 115 -165 8 -18 59
-156 113 -306 l99 -274 24 -409 23 -409 -72 -365 c-39 -201 -76 -376 -81 -390
-5 -14 -80 -118 -168 -230 l-160 -205 -172 -730 -172 -730 -50 -1220 c-49
-1185 -51 -1223 -75 -1316 -14 -53 -25 -98 -25 -101 0 -3 30 -3 66 0 l67 5 -7
-199 c-4 -109 -10 -202 -12 -205 -2 -4 -51 -13 -109 -20 -58 -7 -109 -16 -115
-19 -13 -8 -80 -268 -73 -286 4 -12 678 -14 4856 -14 l4851 0 169 168 c92 92
173 175 178 184 6 11 4 79 -6 187 l-15 170 84 409 83 410 -128 159 c-70 87
-232 286 -361 443 l-233 285 -142 75 -142 75 6 45 c3 25 3 43 0 40 -5 -5 -57
-345 -57 -375 0 -7 87 -75 193 -150 l192 -138 221 -317 222 -317 -69 -306 -70
-306 -103 -181 -103 -181 -144 -94 c-79 -52 -145 -95 -146 -95 -4 0 89 143
128 196 32 44 41 69 62 170 l24 119 -181 52 c-99 29 -186 53 -192 53 -7 0 -48
-42 -93 -94 -76 -88 -84 -95 -157 -122 -80 -30 -102 -47 -367 -286 -60 -54
-112 -96 -117 -93 -4 2 -12 24 -18 47 -11 42 -14 44 -89 75 -43 17 -77 36 -76
42 2 5 41 95 87 198 185 414 171 387 287 523 58 69 168 185 242 257 110 107
149 138 202 162 l65 30 0 44 c0 24 3 71 6 104 l7 60 98 23 c55 13 99 27 99 31
0 3 -55 57 -122 118 l-123 112 -7 -38 c-3 -21 -17 -120 -29 -221 l-22 -183
-111 -57 c-61 -31 -113 -58 -116 -60 -4 -1 4 80 16 180 13 101 82 669 154
1263 189 1557 475 3908 724 5945 68 553 123 1006 122 1006 -1 1 -206 29 -456
63 -532 73 -2331 321 -2535 350 -77 11 -689 103 -1360 205 -905 137 -1381 205
-1845 261 l-625 75 -900 0 -900 0 -38 -362z m1898 232 c163 -16 150 -7 168
-113 24 -140 53 -297 82 -452 56 -297 67 -361 69 -399 l1 -38 -95 -24 c-52
-13 -98 -23 -102 -24 -9 0 -42 107 -183 585 -24 83 -52 177 -63 210 l-19 60
-7 -210 c-3 -115 -8 -232 -11 -260 -2 -27 -5 -71 -5 -97 0 -55 -8 -60 -31 -20
-9 15 -61 90 -114 167 -53 77 -117 171 -142 208 -25 38 -47 66 -49 64 -3 -2 2
-22 10 -43 8 -22 31 -95 51 -164 20 -69 43 -145 51 -170 75 -244 124 -414 120
-417 -1 -1 -48 -13 -104 -26 -93 -22 -104 -23 -111 -8 -5 9 -32 84 -60 166
-28 83 -74 218 -102 300 -118 344 -179 528 -179 535 0 5 10 12 23 16 12 3 80
31 151 61 142 60 141 60 152 -12 4 -29 28 -72 82 -147 42 -58 84 -116 92 -128
44 -64 73 -100 79 -100 5 0 11 39 14 88 11 146 26 315 32 360 l6 42 47 0 c26
0 92 -5 147 -10z m-961 -132 c3 -7 16 -71 31 -143 31 -147 54 -246 84 -355 11
-41 30 -127 41 -190 12 -63 34 -158 51 -211 35 -115 42 -203 17 -241 -19 -29
-76 -42 -197 -43 -60 0 -66 2 -77 25 -28 55 -196 593 -214 683 -11 53 -35 137
-55 187 -48 123 -52 146 -30 171 10 10 44 26 74 35 86 24 113 35 155 66 43 30
113 39 120 16z m-696 -117 c19 -62 16 -90 -12 -97 -51 -13 -61 -3 -58 56 3 72
7 80 35 80 19 0 26 -8 35 -39z m-178 -5129 c0 -10 -7 -27 -15 -38 -13 -17 -13
-15 -3 19 12 41 18 47 18 19z m17 -805 c6 -7 -21 -167 -156 -922 -70 -386 -96
-534 -156 -860 -25 -132 -67 -384 -94 -560 -85 -547 -123 -790 -125 -792 -2
-2 -27 -8 -57 -13 -71 -14 -149 -4 -149 18 0 10 13 91 29 182 38 209 143 833
216 1280 31 190 80 491 110 670 30 179 77 467 104 641 28 174 55 329 61 344
l11 28 99 -5 c55 -3 103 -8 107 -11z"/>
<path d="M4395 4239 c-3 -13 -50 -301 -105 -639 -55 -338 -102 -621 -105 -628
-14 -39 -244 -1481 -239 -1500 5 -16 14 -22 34 -22 15 0 32 6 37 13 5 6 33
156 61 332 29 176 130 799 226 1385 96 586 173 1066 172 1068 -2 1 -20 5 -39
9 -32 5 -37 3 -42 -18z"/>
<path fill="#c30f00" d="M8950 10793 c14 -2 333 -44 710 -93 642 -84 1308 -156 3593 -388 262
-27 480 -52 483 -55 6 -5 -41 -259 -287 -1561 -132 -700 -187 -1030 -350
-2101 -38 -253 -72 -475 -75 -492 l-6 -33 218 0 219 -1 145 -64 c172 -75 154
-40 173 -338 l13 -198 -149 -229 -148 -229 -235 -228 -236 -228 -102 -5 -101
-5 -48 -309 c-26 -170 -46 -311 -43 -313 9 -9 51 21 170 120 87 72 137 122
180 181 57 79 67 87 261 216 l202 134 203 286 203 285 -16 427 -15 427 -148
186 c-168 210 -137 193 -309 175 -49 -5 -121 -11 -160 -15 -38 -3 -100 -8
-137 -11 -38 -3 -68 -2 -68 3 0 5 36 211 79 458 44 248 100 569 126 715 41
236 85 488 200 1135 172 972 211 1194 251 1419 28 164 41 261 35 265 -5 4
-544 107 -1198 230 -653 123 -1189 227 -1191 232 -2 5 -523 8 -1235 8 -678 -1
-1221 -4 -1207 -6z"/>
<path d="M3175 785 c-5 -2 -31 -6 -57 -10 -38 -5 -47 -10 -50 -28 -3 -20 -12
-23 -88 -32 -77 -9 -85 -12 -88 -32 -2 -13 -7 -23 -12 -23 -5 0 -15 -2 -22 -5
-10 -4 -20 7 -31 35 -13 35 -19 40 -39 35 -13 -3 -52 -9 -88 -13 l-65 -7 -31
-52 c-30 -51 -31 -56 -28 -148 3 -85 7 -102 33 -149 l31 -53 77 -11 c67 -9 80
-8 95 5 13 11 21 13 30 5 19 -15 98 2 117 26 12 15 30 21 71 24 55 3 55 3 58
-27 2 -16 7 -33 10 -37 4 -4 43 -2 87 3 61 7 83 14 94 29 7 11 24 20 37 20 21
0 24 5 24 35 0 42 15 46 25 8 3 -15 11 -30 15 -33 9 -6 218 15 225 21 2 2 5
78 7 168 l3 163 -135 -7 c-74 -3 -143 -9 -152 -11 -13 -4 -21 2 -27 20 -8 19
-15 23 -31 19 -25 -7 -40 10 -40 45 0 21 -22 28 -55 17z m8 -67 c3 -22 0 -36
-9 -41 -19 -11 -18 -47 1 -47 10 0 15 -10 15 -30 0 -16 -5 -30 -11 -30 -7 0
-10 -33 -7 -102 3 -97 2 -103 -17 -103 -18 0 -21 9 -27 84 -4 46 -14 99 -23
118 -11 22 -13 38 -7 46 5 7 12 32 15 57 4 29 13 51 27 62 31 25 37 23 43 -14z
m-391 -69 c22 -12 23 -28 4 -55 -12 -15 -17 -17 -27 -6 -54 52 -102 -51 -63
-134 31 -66 94 -48 94 27 0 53 16 88 44 99 37 14 65 1 87 -39 19 -36 20 -36
15 -6 -3 17 -7 46 -8 65 -3 32 -1 35 24 35 14 0 30 3 34 8 14 13 51 7 68 -11
14 -17 44 -187 34 -197 -1 -2 -12 -5 -23 -7 -18 -3 -21 5 -28 72 -9 83 -19
102 -42 79 -13 -13 -14 -27 -6 -84 11 -76 9 -85 -20 -85 -12 0 -19 7 -19 20 0
11 -4 20 -10 20 -5 0 -10 -10 -10 -23 0 -39 -27 -67 -65 -67 -19 0 -37 5 -40
11 -5 7 -13 4 -26 -7 -26 -24 -92 -23 -120 1 -55 49 -76 171 -42 242 25 54 88
73 145 42z m458 -15 c0 -25 2 -26 48 -22 44 3 47 1 50 -22 2 -18 -4 -28 -20
-35 -20 -9 -24 -19 -28 -80 -4 -53 -9 -70 -20 -70 -12 0 -16 18 -20 80 l-5 80
-9 -97 c-7 -87 -11 -98 -28 -98 -17 0 -19 7 -16 103 3 98 4 102 25 102 29 1
31 19 3 23 -39 6 -39 62 0 62 15 0 20 -7 20 -26z m288 3 c13 -16 36 -192 27
-207 -10 -16 -35 -11 -36 8 -4 92 -16 152 -31 152 -8 0 -9 -25 -5 -85 5 -71 3
-87 -9 -92 -22 -8 -23 -4 -32 77 -5 49 -12 75 -21 78 -12 4 -13 -10 -8 -82 7
-80 6 -86 -12 -86 -21 0 -26 19 -37 146 l-6 81 40 7 c22 3 47 3 55 0 8 -3 18
-1 22 5 9 15 40 14 53 -2z"/>
<path d="M2850 515 c-14 -17 -7 -69 11 -92 29 -34 53 42 29 88 -13 23 -23 24
-40 4z"/>
<path d="M1180 743 c-74 -13 -136 -26 -139 -28 -2 -2 -12 -34 -22 -71 -22 -81
-19 -115 24 -242 l32 -94 93 5 c67 3 97 9 111 21 12 11 44 18 102 23 46 3 89
10 95 14 6 5 14 6 18 2 4 -4 27 -6 52 -4 25 1 50 -2 57 -7 7 -5 30 -13 52 -16
34 -6 44 -4 62 16 11 13 24 34 28 48 4 14 14 29 21 35 7 5 17 42 23 80 l10 70
-32 28 c-28 25 -38 28 -79 23 -45 -5 -48 -3 -48 18 0 21 -4 22 -66 23 -54 1
-67 -2 -77 -18 -14 -23 -27 -25 -27 -3 0 13 -8 15 -49 9 l-49 -7 -13 51 c-9
35 -18 51 -28 50 -9 0 -77 -12 -151 -26z m124 -79 c3 -26 6 -64 6 -85 l0 -37
29 29 c39 39 92 40 126 3 23 -25 25 -26 25 -6 0 49 72 71 108 32 17 -18 20
-19 32 -5 35 42 100 -7 100 -76 l0 -39 -50 0 c-38 0 -50 -4 -50 -15 0 -21 29
-31 50 -17 22 13 30 6 30 -25 0 -46 -89 -53 -106 -8 -5 13 -8 13 -21 0 -19
-19 -46 -19 -84 0 -27 14 -32 14 -51 0 -28 -19 -67 -19 -95 0 -19 13 -22 13
-27 0 -3 -9 -18 -15 -37 -15 -19 0 -43 -10 -61 -25 -34 -29 -57 -31 -97 -10
-56 28 -95 156 -71 229 22 67 95 97 148 60 26 -18 27 -24 8 -49 -12 -16 -16
-17 -29 -6 -22 18 -56 5 -68 -26 -12 -33 -1 -98 23 -129 24 -29 56 -29 72 1 6
11 12 22 13 24 2 2 10 -2 19 -10 16 -13 17 -12 11 11 -3 14 -9 69 -12 124 -8
103 -4 115 36 116 12 0 18 -13 23 -46z"/>
<path d="M1540 561 c0 -5 11 -16 25 -25 21 -14 25 -14 25 -2 0 9 -9 20 -19 26
-24 12 -31 13 -31 1z"/>
<path d="M1653 553 c-23 -8 -14 -30 12 -30 14 0 25 3 25 7 0 13 -24 28 -37 23z"/>
<path d="M1374 526 c-10 -43 3 -78 29 -74 19 3 22 9 22 48 0 39 -3 45 -22 48
-17 3 -24 -3 -29 -22z"/>
<path d="M1490 507 c0 -17 44 -59 53 -50 12 11 8 19 -23 41 -21 16 -30 19 -30
9z"/>
<path d="M725 669 c-51 -25 -63 -37 -86 -80 -79 -156 87 -317 242 -236 121 64
120 249 -3 313 -43 22 -110 23 -153 3z m138 -66 c35 -18 61 -75 52 -117 -18
-92 -128 -128 -199 -66 -43 38 -54 86 -30 132 39 75 96 92 177 51z"/>
<path d="M743 582 c-36 -27 -47 -73 -29 -116 18 -43 52 -61 99 -52 49 9 72 39
72 93 0 37 -5 49 -28 69 -33 28 -82 31 -114 6z"/>
<path d="M2273 655 c-71 -43 -102 -140 -69 -218 16 -38 76 -94 112 -103 14 -4
47 -4 74 -2 91 9 150 78 150 178 0 64 -19 102 -72 140 -55 40 -133 42 -195 5z
m59 -92 l38 -37 39 38 c55 54 76 37 22 -18 l-40 -41 40 -43 c33 -34 37 -43 25
-48 -10 -4 -30 7 -53 30 l-37 36 -37 -36 c-51 -50 -74 -35 -24 16 41 42 40 54
-9 99 -22 21 -27 41 -8 41 3 0 23 -17 44 -37z"/>
</g>
</svg>
