<?xml version="1.0" standalone="no"?>
<!DOCTYPE svg PUBLIC "-//W3C//DTD SVG 20010904//EN"
 "http://www.w3.org/TR/2001/REC-SVG-20010904/DTD/svg10.dtd">
<svg version="1.0" xmlns="http://www.w3.org/2000/svg"
 width="1394.000000pt" height="1080.000000pt" viewBox="0 0 1394.000000 1080.000000"
 preserveAspectRatio="xMidYMid meet">
<g xmlns="http://www.w3.org/2000/svg" transform="translate(0.000000,1080.000000) scale(0.100000,-0.100000)" stroke="none">
<path fill="#c30f00" d="M4517 10438 c-197 -1924 -257 -2502 -261 -2506 -3 -2 -62 33 -133 78 -70 45 -136 87 -145 94 -10 6 -18 20 -18 31 0 13 -18 31 -49 52 l-49 32 -241 -211 -241 -212 0 -144 c0 -158 -12 -222 -89 -465 -22 -67 -51 -183 -66 -257 -34 -173 -75 -299 -140 -430 -29 -58 -63 -141 -75 -185 -12 -44 -50 -134 -84 -200 -69 -133 -95 -202 -160 -416 l-43 -147 -180 -176 -180 -176 -80 -248 c-45 -136 -113 -350 -153 -477 l-72 -230 -143 -260 c-79 -143 -200 -363 -269 -490 l-126 -230 0 -105 0 -105 -127 -235 c-133 -248 -320 -581 -359 -640 -52 -78 -209 -500 -324 -867 -54 -172 -73 -251 -80 -321 -5 -55 -15 -101 -23 -110 -8 -10 -148 -178 -311 -376 l-296 -358 0 -74 0 -74 660 0 660 0 0 64 0 64 108 7 c59 3 112 8 118 10 10 3 30 182 21 191 -2 2 -19 -1 -37 -8 -26 -9 -35 -9 -38 1 -3 9 -9 7 -23 -5 -16 -15 -27 -15 -81 -6 -60 9 -64 9 -83 -14 -19 -21 -28 -23 -134 -25 l-114 -3 -24 55 c-13 30 -27 63 -31 73 -7 17 -11 15 -31 -17 -29 -47 -95 -86 -159 -94 -40 -4 -60 -1 -104 20 -117 53 -158 173 -100 288 42 83 127 128 217 114 44 -6 135 -57 135 -75 0 -5 4 -10 9 -10 5 0 15 24 22 54 6 30 15 60 20 67 7 12 241 48 317 49 28 0 34 -5 48 -40 14 -35 20 -40 49 -40 19 0 37 -5 40 -10 5 -7 11 -8 19 -1 6 5 34 11 61 13 l49 3 82 185 c46 102 130 292 186 422 56 130 105 235 107 232 3 -2 21 -82 41 -176 l36 -171 74 302 74 302 135 167 135 167 32 265 c18 146 51 415 74 599 l41 334 320 624 320 625 94 456 95 456 121 200 122 201 18 155 c10 85 20 174 23 198 l6 42 -73 36 -72 36 3 326 4 327 77 275 c43 151 95 339 116 418 21 78 42 142 46 142 3 0 22 -34 40 -75 l33 -75 57 0 58 0 102 -132 c56 -72 108 -146 115 -165 8 -18 59 -156 113 -306 l99 -274 24 -409 23 -409 -72 -365 c-39 -201 -76 -376 -81 -390 -5 -14 -80 -118 -168 -230 l-160 -205 -172 -730 -172 -730 -50 -1220 c-49 -1185 -51 -1223 -75 -1316 -14 -53 -25 -98 -25 -101 0 -3 30 -3 66 0 l67 5 -7 -199 c-4 -109 -10 -202 -12 -205 -2 -4 -51 -13 -109 -20 -58 -7 -109 -15 -115 -19 -5 -3 -27 -72 -48 -153 l-39 -147 4860 0 4861 0 169 168 c92 92 173 175 178 184 6 11 4 79 -6 187 l-15 170 84 409 83 410 -128 159 c-70 87 -232 286 -361 443 l-233 285 -142 75 -142 75 6 45 c3 25 3 43 0 40 -5 -5 -57 -345 -57 -375 0 -7 87 -75 193 -150 l192 -138 221 -317 222 -317 -69 -306 -70 -306 -103 -181 -103 -181 -144 -94 c-79 -52 -145 -95 -146 -95 -4 0 89 143 128 196 32 44 41 69 62 170 l24 119 -181 52 c-99 29 -186 53 -192 53 -7 0 -48 -42 -93 -94 -76 -88 -84 -95 -157 -122 -80 -30 -102 -47 -367 -286 -60 -54 -112 -96 -117 -93 -4 2 -12 24 -18 47 -11 42 -14 44 -89 75 -43 17 -77 36 -76 42 2 5 41 95 87 198 185 414 171 387 287 523 58 69 168 185 242 257 110 107 149 138 202 162 l65 30 0 44 c0 24 3 71 6 104 l7 60 98 23 c55 13 99 27 99 31 0 3 -55 57 -122 118 l-123 112 -7 -38 c-3 -21 -17 -120 -29 -221 l-22 -183 -111 -57 c-61 -31 -113 -58 -116 -60 -4 -1 4 80 16 180 13 101 82 669 154 1263 189 1557 475 3908 724 5945 68 553 123 1006 122 1006 -1 1 -206 29 -456 63 -532 73 -2331 321 -2535 350 -77 11 -689 103 -1360 205 -905 137 -1381 205 -1845 261 l-625 75 -900 0 -900 0 -38 -362z m1898 232 c163 -16 150 -7 168 -113 24 -140 53 -297 82 -452 56 -297 67 -361 69 -399 l1 -38 -95 -24 c-52 -13 -98 -23 -102 -24 -9 0 -42 107 -183 585 -24 83 -52 177 -63 210 l-19 60 -7 -210 c-3 -115 -8 -232 -11 -260 -2 -27 -5 -71 -5 -97 0 -55 -8 -60 -31 -20 -9 15 -61 90 -114 167 -53 77 -117 171 -142 208 -25 38 -47 66 -49 64 -3 -2 2 -22 10 -43 8 -22 31 -95 51 -164 20 -69 43 -145 51 -170 75 -244 124 -414 120 -417 -1 -1 -48 -13 -104 -26 -93 -22 -104 -23 -111 -8 -5 9 -32 84 -60 166 -28 83 -74 218 -102 300 -118 344 -179 528 -179 535 0 5 10 12 23 16 12 3 80 31 151 61 142 60 141 60 152 -12 4 -29 28 -72 82 -147 42 -58 84 -116 92 -128 44 -64 73 -100 79 -100 5 0 11 39 14 88 11 146 26 315 32 360 l6 42 47 0 c26 0 92 -5 147 -10z m-1657 -249 c19 -62 16 -90 -12 -97 -51 -13 -61 -3 -58 56 3 72 7 80 35 80 19 0 26 -8 35 -39z m7180 -613 c18 -15 15 -29 -14 -62 l-25 -28 -39 26 c-43 28 -43 29 -33 64 5 22 9 23 52 17 25 -4 52 -12 59 -17z m-294 -5 c7 -16 -16 -43 -35 -43 -13 0 -19 33 -8 46 16 19 36 17 43 -3z m611 -78 c0 -21 -5 -31 -19 -33 -22 -5 -36 13 -36 46 0 20 4 23 28 20 23 -2 27 -8 27 -33z m-7383 -3772 c33 -30 18 -93 -23 -93 -24 0 -69 46 -69 70 0 35 61 51 92 23z m50 -190 c8 -35 -3 -53 -32 -53 -30 0 -44 21 -35 51 8 25 61 26 67 2z m-282 -386 c10 -38 9 -49 -4 -76 -13 -25 -60 -61 -80 -61 -2 0 10 42 27 94 17 52 34 93 38 91 3 -3 12 -24 19 -48z m128 -258 c2 -9 -5 -19 -14 -23 -21 -8 -50 17 -39 34 10 16 49 8 53 -11z m-134 -175 c18 -18 21 -56 6 -85 -8 -13 -21 -19 -45 -19 -28 0 -37 5 -48 28 -7 15 -11 36 -9 47 9 42 66 59 96 29z m-202 -16 c0 -13 1 -36 2 -53 1 -16 7 -40 14 -52 17 -30 15 -48 -6 -59 -32 -15 -122 -123 -123 -147 -1 -12 0 -38 1 -58 2 -53 -40 -129 -89 -164 -23 -15 -44 -26 -46 -23 -3 3 6 56 20 119 32 143 34 149 47 149 24 0 68 42 68 66 0 14 9 42 20 64 11 22 20 48 20 58 0 11 7 25 15 32 8 7 15 18 15 26 0 23 19 64 30 64 5 0 11 -10 12 -22z m38 -328 c24 -24 25 -33 5 -50 -12 -10 -20 -9 -40 4 -14 9 -24 20 -22 24 2 4 7 15 10 25 8 22 22 22 47 -3z m127 -113 c6 -7 -21 -167 -156 -922 -70 -386 -96 -534 -156 -860 -25 -132 -67 -384 -94 -560 -85 -547 -123 -790 -125 -792 -2 -2 -27 -8 -57 -13 -71 -14 -149 -4 -149 18 0 10 11 80 25 157 30 164 181 1064 259 1545 30 184 82 499 115 700 33 201 72 444 87 540 15 96 32 181 38 189 8 10 33 12 108 9 54 -3 101 -8 105 -11z m-417 -233 c6 -27 5 -48 -6 -72 -8 -19 -14 -42 -14 -51 0 -18 -39 -86 -45 -79 -3 2 7 59 22 126 14 67 28 120 30 118 3 -2 9 -21 13 -42z m7353 -845 c12 -19 -15 -62 -50 -78 -18 -8 -25 -6 -38 12 -21 30 -19 53 8 72 27 19 66 16 80 -6z m-325 -126 c-5 -25 -28 -28 -28 -4 0 12 6 21 16 21 9 0 14 -7 12 -17z m553 -1763 c38 -21 13 -75 -32 -68 -35 5 -47 33 -25 57 22 24 29 25 57 11z"/>
<path d="M4395 4239 c-3 -13 -50 -301 -105 -639 -55 -338 -102 -621 -105 -628 -14 -39 -244 -1481 -239 -1500 5 -16 14 -22 34 -22 15 0 32 6 37 13 5 6 33 156 61 332 29 176 130 799 226 1385 96 586 173 1066 172 1068 -2 1 -20 5 -39 9 -32 5 -37 3 -42 -18z"/>
<path d="M8950 10793 c14 -2 333 -44 710 -93 642 -84 1308 -156 3593 -388 262 -27 480 -52 483 -55 6 -5 -41 -259 -287 -1561 -132 -700 -187 -1030 -350 -2101 -38 -253 -72 -475 -75 -492 l-6 -33 218 0 219 -1 145 -64 c172 -75 154 -40 173 -338 l13 -198 -149 -229 -148 -229 -235 -228 -236 -228 -102 -5 -101 -5 -48 -309 c-26 -170 -46 -311 -43 -313 9 -9 51 21 170 120 87 72 137 122 180 181 57 79 67 87 261 216 l202 134 203 286 203 285 -16 427 -15 427 -148 186 c-168 210 -137 193 -309 175 -49 -5 -121 -11 -160 -15 -38 -3 -100 -8 -137 -11 -38 -3 -68 -2 -68 3 0 5 36 211 79 458 44 248 100 569 126 715 41 236 85 488 200 1135 172 972 211 1194 251 1419 28 164 41 261 35 265 -5 4 -544 107 -1198 230 -653 123 -1189 227 -1191 232 -2 5 -523 8 -1235 8 -678 -1 -1221 -4 -1207 -6z"/>
</g>
</svg>
